<svg width="113" height="227" viewBox="0 0 113 227" fill="none" xmlns="http://www.w3.org/2000/svg">
<path d="M6.68254 2.1426C2.42005 3.7147 0.239058 8.44457 1.81116 12.7071C3.38325 16.9695 8.11312 19.1505 12.3756 17.5784C16.6381 16.0063 18.8191 11.2765 17.247 7.01399C15.6749 2.7515 10.945 0.570506 6.68254 2.1426ZM96.6848 221.044C97.2545 221.677 98.2297 221.729 98.8631 221.159L109.184 211.876C109.817 211.306 109.869 210.331 109.299 209.697C108.729 209.064 107.754 209.013 107.121 209.582L97.9469 217.834L89.6951 208.66C89.1254 208.027 88.1502 207.975 87.5168 208.545C86.8835 209.114 86.8319 210.09 87.4016 210.723L96.6848 221.044ZM7.98668 9.86052C7.98668 39.2952 14.0141 58.6761 23.0435 73.3296C32.0383 87.9271 43.9683 97.7316 55.3976 107.987C66.8603 118.272 77.9293 129.09 85.7266 145.856C93.5252 162.626 98.114 185.493 96.2913 219.931L99.3718 220.094C101.212 185.316 96.595 161.911 88.5237 144.556C80.4511 127.197 68.9865 116.035 57.4578 105.691C45.8957 95.3164 34.3764 85.841 25.6697 71.7113C16.9976 57.6377 11.0715 38.8442 11.0715 9.86052L7.98668 9.86052Z" fill="#41A0D8"/>
<circle cx="9.52929" cy="9.86065" r="5.78399" fill="#8253A0"/>
</svg>
