<svg xmlns="http://www.w3.org/2000/svg" width="1em" height="1em" version="1.0" viewBox="0 0 24 24"><path d="M146.3 146.3 8 284.5v214.6l2.5 2.4 2.4 2.5h198.6l146.2-146.3L504 211.5v-54.6l-2.5-2.4-2.4-2.5H408V60.9l-2.5-2.4-2.4-2.5h-54.3l-6.4 6.2-6.4 6.1V12.9l-2.5-2.4-2.4-2.5h-46.6L146.3 146.3zm34.2 5.7-128 128h-17l128-128 128-128h17l-128 128zm51.5 20.5-88 88v96l-40 40-40 40v-145l127.8-127.8L319.5 36l.3 24.2.2 24.2-88 88.1zm56.5-8.5-92 92h-25l92-92 92-92h25l-92 92zm11.5 84.5-92 92v-73l91.8-91.8L391.5 84l.3 36.2.2 36.3-92 92zm84.5 11.5-92 92h-73l92-92 92-92h73l-92 92zm11.8 36.2L304.5 388l-.3-12.2-.3-12.2 91.8-91.8 91.8-91.8.3 12.2.3 12.2-91.8 91.8zM192 317.5v45.6l2.5 2.4 2.4 2.5H288v32H160V272h32v45.5zm-144 60v81.6l2.5 2.4 2.4 2.5H200v24H24V296h24v81.5zm98.9 36.6c2.2 1.8 4.5 1.9 45.9 1.9h43.7l-16 16-16 16h-129l34-34 34-34 .5 16.1c.5 15.4.6 16.2 2.9 18zm99.6 31.9-30 30-.3-8.2-.3-8.2 21.8-21.8 21.8-21.8h17l-30 30z"/></svg>
