<svg xmlns="http://www.w3.org/2000/svg" width="1em" height="1em" version="1.0" viewBox="0 0 24 24"><path d="M235.4 1c-1.7.7-218.6 296.3-232.1 316.4L0 322.2v184l2.9 2.9 2.9 2.9h134.1c101.9 0 134.6-.3 136.6-1.2 1.8-.8 40.4-53 115.8-156.2 62.2-85.3 114.6-157.3 116.4-160l3.3-4.8V6.1l-2.4-2.8-2.4-2.8L372.3.3C298.2.2 236.5.5 235.4 1zm250.4 16.9c-.1.5-49.1 67.7-108.8 149.5L268.5 316H147.3c-66.7 0-121.3-.3-121.3-.6s48.9-67.6 108.7-149.5L243.3 17h121.4c69 0 121.3.4 121.1.9zm-96.4 311.8c-58.1 79.6-106 145.2-106.5 145.8-.5.5-.9-31.1-.9-74.1v-74.9l106.3-145.6L494.5 35.3l.3 74.8.2 74.8-105.6 144.8zm-124.6 84-.3 80.8-123.7.3L17 495V333h248l-.2 80.7z"/><path d="m37.3 352.4-2.8 2.4v118.1l2.3 2.3 2.3 2.3 99.7.3c54.8.1 100.7 0 102-.3 1.2-.3 3.1-1.4 4.2-2.5 1.9-1.9 2-3.6 2-61v-59.1l-2.5-2.4-2.4-2.5h-202l-2.8 2.4zm68.7 15.2c0 .7-50.8 70.4-53.1 72.9-1.9 1.9-1.9 1.1-1.9-35.8V367h27.5c15.1 0 27.5.3 27.5.6zM230 414v47h-85c-46.7 0-85-.2-85-.5 0-.4 42.5-58.9 62.7-86.3l5.3-7.2h102v47z"/></svg>
