<svg xmlns="http://www.w3.org/2000/svg" width="1em" height="1em" version="1.0" viewBox="0 0 24 24"><path d="M286.7 21.8c-3.4 3.2-57 53.2-119.2 111.1C105.4 190.8 53 239.7 51.3 241.6L48 245v54.1l2.5 2.4 2.4 2.5H104v128H52.9l-2.4 2.5-2.5 2.4v54.2l2.5 2.4 2.4 2.5h166.6l122.2-122.3L464 251.5v-54.6l-2.5-2.4-2.4-2.5H408v-32.3l.1-32.2 20.2-18.7c11.1-10.4 23.7-22.1 28-26.1l7.7-7.2V20.9l-2.5-2.4-2.4-2.5H292.8l-6.1 5.8zM431 36.4c-2.5 2.4-52.6 49.2-111.3 104L212.9 240H76.5l3.5-3.4c1.9-1.9 52-48.7 111.4-104L299.2 32h136.3l-4.5 4.4zm17 19.4v12.7L340.4 169c-59.1 55.3-109.5 102.2-112 104.4l-4.5 3.9.3-13.1.3-13.1L336 147C397.2 89.8 447.5 43 447.7 43c.2 0 .3 5.7.3 12.8zm-53.1 150.3c2.1 1.7 4.1 1.9 22 1.9h19.6l-112 112-112 112H168V304h51l18.8-17.4c10.3-9.5 49.1-45.7 86.2-80.4l67.5-63 .5 30.5.5 30.5 2.4 1.9zm-58.6 150.1L224.5 468l-.3-12.2-.3-12.2 111.8-111.8L447.5 220l.3 12.2.3 12.2-111.8 111.8zM208 272v16h-51.1l-2.4 2.5-2.5 2.4v150.2l2.5 2.4 2.4 2.5H208v32H64v-32h51.1l2.4-2.5 2.5-2.4V292.9l-2.5-2.4-2.4-2.5H64v-32h144v16z"/></svg>
