<svg xmlns="http://www.w3.org/2000/svg" width="1em" height="1em" version="1.0" viewBox="0 0 24 24"><path d="M358.1 9.1c-9.8 1.9-16.1 6-31.3 20.5C286.5 68 18.2 330.5 16.2 333.5c-4.1 5.9-7.3 15.4-7.9 22.9-2.4 32.1 28.2 58.1 59 50.1 11.6-3 15.1-5.6 37.3-27.7 18.7-18.6 21.3-20.8 21.9-18.9 1 3.2 11.7 14.4 15.9 16.6l3.6 1.9-24.9 25.1c-26.2 26.3-28.5 29.4-31.6 41.2-8.9 34.1 23.8 66.7 58 57.8 13.5-3.6 5.8 3.8 182.6-173.3 127.5-127.6 166.1-166.9 168.2-170.8 7.1-13.5 7.4-29.6.9-43.3-3-6.3-12.5-16.8-17.6-19.6l-3.4-1.9 4.5-5c11.1-12.4 15.4-27.6 12.2-42.7-4.7-21.8-24.6-38-46.7-37.9-6.7 0-16.7 2.6-22.5 5.8-2.7 1.4-7.9 5.4-11.5 8.7l-6.5 6.1-5.4-5.7C391 11 374.5 5.9 358.1 9.1zM381.2 27c5.5 2.6 10.8 6.9 13 10.7l1.7 2.9-14 14L368 68.5V23.7l4.5.6c2.4.4 6.4 1.6 8.7 2.7zm80.3-.1c6.2 2.7 12 8.5 15.2 14.9 2.4 4.8 2.8 7 2.8 13.7 0 11.8-2.4 16-18.5 32l-13 13V23.7l4.6.7c2.5.3 6.5 1.4 8.9 2.5zM336 100.5l-16 16v-58l12.3-12.1c6.7-6.6 13.8-13.3 15.7-14.9l3.5-2.8.3 27.9.2 27.9-16 16zm80 32-16 16V59.4L415.8 44l15.7-15.5.3 44 .2 44-16 16zm-128 16-16 16v-59l15.8-15.8L303.5 74l.3 29.2.2 29.3-16 16zm80 32-16 16v-89l15.8-15.8L383.5 76l.3 44.2.2 44.3-16 16zm113.7-63.6c9.7 12.6 7.7 30.4-4.7 42.6l-5 4.9v-56.7l3.3 2.5c1.7 1.4 4.7 4.4 6.4 6.7zM440 196.5l-16 16v-65l15.8-15.8 15.7-15.7.3 32.2.2 32.3-16 16zm-200 0-16 16v-60.1l15.8-15.7 15.7-15.7.3 29.8.2 29.7-16 16zm80 32-16 16v-89l15.8-15.8 15.7-15.7.3 44.2.2 44.3-16 16zm72 16-16 16v-65l15.8-15.8 15.7-15.7.3 32.2.2 32.3-16 16zm-200 0-16 16v-61.9l15.8-15.1 15.7-15.2.3 30.1.2 30.1-16 16zm80 32-16 16v-89l15.8-15.8 15.7-15.7.3 44.2.2 44.3-16 16zm72 16-16 16v-65l15.8-15.8 15.7-15.7.3 32.2.2 32.3-16 16zm-199.9-.1c-16.6 16.9-19.8 21.4-22.6 32.3-.8 3.1-1.5 8-1.5 10.8 0 5-.1 5.2-7.9 12.9l-8 7.9-.6-2.9c-2.5-12-5.6-18.2-13.1-26.3-6.2-6.7-16.3-12.5-24.7-14-2.6-.5-4.9-1-5.1-1.2-.2-.2 11.2-11.6 25.3-25.3l25.6-25 .3 13.2.3 13.2H128v-21.3l-.1-21.2 15.8-15.2 15.8-15.1.3 30.6.2 30.5-15.9 16.1zm84.2 27.8c-6.4 6.4-11.9 11.5-12.1 11.3-.3-.2-.8-2.6-1.3-5.2s-2.3-7.6-3.9-11.1l-3-6.4v-57.3l15.8-15.8 15.7-15.7.3 44.2.2 44.2-11.7 11.8zm67.7 20.3-16 16v-65l15.8-15.8 15.7-15.7.3 32.2.2 32.3-16 16zm-104-59.4c0 12.1-.1 13.1-1.7 12.4-3.3-1.4-12.8-4.5-15.7-5.1-2.9-.5-2.9-.6 7-10.5 5.4-5.4 10-9.9 10.1-9.9.2 0 .3 5.9.3 13.1zm-8.9 27c6.7 3.6 9.8 6.8 13.7 14.3 2.2 4.3 2.6 6.4 2.6 13.6.1 7.8-.2 9-3.3 14.8-3.8 7-7 10-14.5 14-4.3 2.2-6.4 2.6-13.6 2.6-7.2 0-9.3-.4-13.6-2.6-7.5-4-10.7-7-14.5-14-3.1-5.8-3.4-7-3.3-14.8 0-10 2.4-16 8.9-22.5 10-10 24.9-12.1 37.6-5.4zm64.9 80.4-16 16v-65l15.8-15.8 15.7-15.7.3 32.2.2 32.3-16 16zM71.1 332.1c6.7 3.6 9.8 6.8 13.7 14.3 2.2 4.3 2.6 6.4 2.6 13.6.1 7.8-.2 9-3.3 14.8-3.8 7-7 10-14.5 14-4.3 2.2-6.4 2.6-13.6 2.6-7.2 0-9.3-.4-13.6-2.6-7.5-4-10.7-7-14.5-14-3.1-5.8-3.4-7-3.3-14.8 0-10 2.4-16 8.9-22.5 10-10 24.9-12.1 37.6-5.4zM200 436.5l-16 16v-71l6.3-3.2c4.2-2.2 9.3-6.4 15.7-12.8l9.5-9.5.3 32.2.2 32.3-16 16zm-32-34.6v18l-5-3.4c-5.2-3.5-14.8-7.5-18-7.5-5.9 0-5.3-1.1 6.6-13.1 8.2-8.2 12.6-11.9 14.1-11.9h2.3v17.9zm-16.9 26.2c6.7 3.6 9.8 6.8 13.7 14.3 2.2 4.3 2.6 6.4 2.6 13.6.1 7.8-.2 9-3.3 14.8-3.8 7-7 10-14.5 14-4.3 2.2-6.4 2.6-13.6 2.6-7.2 0-9.3-.4-13.6-2.6-7.5-4-10.7-7-14.5-14-3.1-5.8-3.4-7-3.3-14.8 0-10 2.4-16 8.9-22.5 10-10 24.9-12.1 37.6-5.4z"/></svg>
