<svg xmlns="http://www.w3.org/2000/svg" width="1em" height="1em" version="1.0" viewBox="0 0 24 24"><path d="M155 83.7c-9.1 1-26.2 4.7-35.3 7.7C40.7 117.3-9.1 195.8 1.5 277.7c9.8 74.8 64.8 133.3 139.7 148.5l11.3 2.3h207l11.3-2.3c63.8-12.9 113.4-57 133-118.2 23.7-74-5.8-155.1-71.8-198-16.1-10.4-39.3-19.7-60.6-24.2l-10.9-2.3-101-.1c-55.5-.1-102.6.1-104.5.3zm49.5 17.3c31.4 6.7 57.3 20.7 80.1 43.4 22.7 22.8 36.4 47.9 43.6 80.3 1.9 8.4 2.2 12.9 2.2 31.3 0 23.7-1.1 31.4-7.4 50.2-15.5 46.3-53.5 84.3-99.6 99.7-18.1 6.1-27.8 7.5-50.4 7.5-17.4 0-22.1-.3-30.6-2.2-64-13.8-110.8-60.9-124.5-125.2-3.3-15.2-3.3-44.8 0-60C32.4 157.9 85 108.5 153 99c11.1-1.5 40.1-.4 51.5 2zm165.7-.2c49 11.1 88.3 41.3 110.2 85.1 8.3 16.5 15 40.2 15.8 56.1l.3 6.5h-150l-1.2-10.2c-2.5-21.8-6.9-37.4-15.9-56.3-9.7-20.3-19.7-34.1-36-50.1-13.2-12.8-23.5-20.3-39.9-29.1l-9-4.8 58 .3c55.2.3 58.5.5 67.7 2.5zM497 264.4c0 .3-.7 5.6-1.5 11.8-8.9 67.2-57.6 119.7-125.3 135-9.2 2-12.5 2.2-67.7 2.5l-58 .3 9.2-4.9c26.7-14.3 50.9-36.9 67-62.6 5.2-8.2 13.9-27.3 17.2-37.5 3.6-11.2 6.7-26.4 7.7-37.3l.7-7.7h75.3c41.5 0 75.4.2 75.4.4z"/><path d="M151.5 114.5c-22.8 3.7-45 12.9-62.5 25.8-6.5 4.9-7.9 6.5-8 9.4 0 3.6 1.2 5.5 4.4 6.8 3.7 1.6 5.9.8 12.9-4.4 12.1-9.1 28.2-16.5 45.4-20.8 9.7-2.5 12.6-2.7 28.8-2.8 18.3 0 22.9.6 37 4.7 40.1 11.7 73.1 44.2 85.9 84.7 7.4 23.6 7.4 52.6 0 76.2-14.2 45-52.1 78.7-98.9 88-10.6 2.1-37.9 1.9-48.5-.4-25.9-5.6-46.2-16.7-65.1-35.6C64.1 327.3 53 306.9 47.4 281c-2.5-11.8-2.6-38.1 0-49.8 3.8-17.7 12-36.7 21.3-49.4 6.2-8.4 6.8-10 5.2-13.4-1.6-3.2-5.5-5-9-4.1-4.6 1.2-17.2 20.8-24 37.2-28 68.8.2 146.2 66.1 181.3 10.2 5.4 24.4 10.5 37 13.3 14 3.1 42.7 3.4 56 .6 29.4-6.3 53.5-19.2 74-39.7 20.3-20.3 33.4-44.4 39.6-73 2.7-12.1 2.7-43.9 0-56-6.2-28.6-19.3-52.7-39.6-73-20.2-20.2-44.3-33.3-73-39.5-10.7-2.3-38-2.9-49.5-1z"/><path d="M153.7 144.6c-17.5 3.1-35.9 11.3-49.7 21.9C83.8 182 67.8 207.6 62.3 233c-2.5 11.6-2.4 34.2.1 46 7.4 35 33 66.5 65.6 80.6 25.2 10.9 55.1 12.3 80.9 3.7 35.8-12 63.9-42 73.8-79 2.4-8.9 2.7-11.5 2.7-28.3s-.3-19.4-2.7-28.3c-11.7-43.4-47.5-76.1-91.1-83.2-11.2-1.8-27.5-1.8-37.9.1zm43.4 16.2c43.5 11.5 73.9 50.4 73.9 94.4 0 13.2-1.3 20.9-5.4 33.1-4.4 13-11.3 24.1-21.5 34.9-13.2 13.9-28.2 22.9-47 28-11.5 3.2-36.2 3.1-48.1-.1-32.3-8.7-58.1-32.6-68.7-63.6-19.2-56.3 16.2-116.6 75.2-128.1 10-1.9 31.7-1.2 41.6 1.4z"/><path d="M157 174.5c-11.6 2.3-26.2 8.7-31.1 13.6-4.1 4.1-1 11.9 4.8 11.9 1.5 0 6.8-2 11.8-4.5 11.6-5.9 20.8-7.8 34-7.2 28 1.2 52 19.3 61.2 46.1 2.5 7.3 2.8 9.4 2.8 21.6 0 12.2-.3 14.3-2.8 21.6-9.2 26.8-33.2 44.9-61.2 46.1-12.7.6-22-1.3-32.9-6.6-19.8-9.7-32.8-26.5-37.2-48.1-3.1-15.5-.6-31.1 7.8-47.1 3.3-6.3 3.7-7.9 2.9-10.1-2-5.2-8.7-6.4-12.5-2.3-3.4 3.7-9.2 16-11.8 25.1-3 10.4-3.2 31.4-.4 41.4 9.1 33 35.1 56.8 67.9 62 9.3 1.5 25.5.8 34.2-1.6 55.9-15 79.7-81.5 46-128.9-18.5-26-52.1-39.3-83.5-33z"/><path d="M160 204.6c-18.8 5-34 20.6-38.5 39.5-7.7 32.6 18 65 51.5 64.9 24.2-.1 45.4-16.4 51.5-39.5 1.9-7.6 1.9-19.4 0-27-4.8-18.4-20.3-33.7-38.6-38-8-1.8-18.7-1.8-25.9.1zm29 17c7.9 3.7 15 10.7 18.8 18.3 2.4 5 2.7 6.7 2.7 16.1 0 9.4-.3 11.1-2.7 16.1-3.8 7.6-10.9 14.6-18.8 18.3-5.8 2.8-7.5 3.1-16 3.1-8.2 0-10.3-.4-15.2-2.7-8-3.7-15.2-10.8-19.1-18.7-2.9-6-3.2-7.4-3.1-16.1 0-8.1.4-10.3 2.6-15.2 4.6-9.9 13.7-18 24.1-21.4 7.1-2.3 19.1-1.3 26.7 2.2z"/></svg>
