<svg xmlns="http://www.w3.org/2000/svg" width="1em" height="1em" version="1.0" viewBox="0 0 24 24"><path d="m439.1 26.1-59.5 25-4.2-3.1c-6-4.3-11.6-6-19.5-6-13.5 0-24.1 6.6-30.1 18.8l-3.3 6.7-.3 21-.3 21-18.1 18.2-18.1 18.2-4.5-3.9c-6.7-5.9-13.9-8.3-23.7-7.8-9.8.6-16 3.4-22.6 10.5-8 8.5-8.9 12.6-8.9 38.6v22.2l-43.7 43.6-43.8 43.6-65.4 7.2c-36 4-66.2 7.6-67.2 8.2-1.1.5-2.6 2.3-3.4 3.9-3.5 6.7-4.5 5.5 38.2 48.2L80.5 400h4.4c4.1 0 4.8-.4 13.3-8.7l8.9-8.7 11.1 11.2 11.2 11.1-8.7 8.9c-8.3 8.5-8.7 9.2-8.7 13.3v4.4l39.8 39.8c42.7 42.7 41.5 41.7 48.2 38.2 1.6-.8 3.4-2.3 3.9-3.4.6-1 4.2-31.2 8.2-67.2l7.2-65.4 6.3-6.4 6.2-6.4 3.4 3.5c12.5 13.2 32.9 13.9 46.3 1.7 3.2-3 6.5-7.3 8.2-10.7l2.8-5.7.3-25 .3-25 16.7-16.7 16.6-16.8 4.4 5c11.3 12.9 30.1 15 44.7 5 2.4-1.7 5.8-5.1 7.5-7.5 5.7-8.3 6-10.3 6-38.9v-26.1l36.4-36.5 36.4-36.5 24.6-58.7C499.9 39.5 511 12.2 511 11.1 511 5.8 506.1.9 500.8 1c-1.3.1-29 11.3-61.7 25.1zm42.6 5.1c-.3.7-8.7 20.9-18.7 44.8l-18.2 43.5-27.2 27.2c-14.9 15-27.4 27.3-27.8 27.3-.5 0-.8-23.3-.8-51.9 0-46.8.2-52 1.6-53.2 1.5-1.3 88.7-38.5 90.8-38.8.4 0 .6.5.3 1.1zM365.1 65.9l3.9 3.9v184.1l-3.1 3.5c-5 5.7-11.8 6.5-18.6 2.1-5.4-3.6-5.3-1.2-5.3-97.6 0-81.2.1-89.4 1.7-92.6 2.2-4.8 6.6-7.3 12.7-7.3 4.3 0 5.3.4 8.7 3.9zM307.5 257 293 271.5v-105l14.3-14.3 14.2-14.2.3 52.2.2 52.3-14.5 14.5zm-40.7-101c6.5 4 6.2-.1 6.2 97.9 0 60.6-.3 89.9-1.1 91.8-3.6 9.6-15.2 11.8-22.5 4.2l-2.9-3-.3-91.5c-.2-81.3-.1-91.8 1.3-94.5 3.4-6.5 12.8-8.9 19.3-4.9zM226 286.8v51.7l-8 8-8 8-26.3-26.3-26.2-26.2 33.5-33.5c18.4-18.4 33.8-33.5 34.2-33.5.5 0 .8 23.3.8 51.8zm-56 55.7 29.5 29.5-6 53.5-5.9 53.6-26-26-26.1-26.1 8.6-8.7c9-9.2 10.4-11.8 8.8-16.2-1.4-3.6-38.7-41-42.7-42.7-1.9-.8-4.3-1.2-5.5-.8-1.2.3-6.1 4.5-11 9.2l-8.7 8.7-26.1-26.1-26-26 49.3-5.6c27.1-3 51.3-5.6 53.8-5.7l4.5-.1 29.5 29.5z"/></svg>
