<svg xmlns="http://www.w3.org/2000/svg" width="1em" height="1em" version="1.0" viewBox="0 0 24 24"><path d="M176.7 1.4c-3.1 2.4-3.7 7.5-3.7 33.3V60h-42.3c-40.8 0-42.4.1-44.4 2-3.2 2.9-3.5 7.1-3.1 42.6.3 30 .4 32.3 2.2 34.3 2.6 2.9 8.6 2.9 11.2 0 1.8-2 1.9-4.3 2.2-33l.3-30.9H293v168.8c0 105.1.4 170 1 172.1 2.3 8.2 11.7 8.2 14 0 .6-2.1 1-67 1-172.1V75h14v422h-14v-25.3c0-13.8-.4-26.7-1-28.6-2.3-8.2-11.7-8.2-14 0-.6 1.9-1 14.8-1 28.6V497H99l-.2-167.9c-.3-163.5-.3-167.9-2.2-170-2.6-2.9-8.6-2.9-11.2 0-1.9 2.1-1.9 6.5-2.2 171.3-.2 93 0 171 .3 173.4.4 2.4 1.5 5.1 2.8 6.2 2 2 3.9 2 124.6 2 101.6-.1 122.9-.3 124.4-1.4 3.1-2.4 3.7-7.5 3.7-33.3V452h42.3c46.3-.1 44.9.1 46.7-6.1 1.3-4.6 1.3-435.2 0-439.8-1.8-6.5 7.2-6-127-6-101.6 0-122.8.2-124.3 1.3zM383 226v211h-44V253.2c0-114.7-.4-185-1-187.1-1.8-6.4 2.4-6-76.7-6.1H189V15h194v211zm30 0v211h-14V15h14v211z"/></svg>
