<svg xmlns="http://www.w3.org/2000/svg" width="1em" height="1em" version="1.0" viewBox="0 0 24 24"><path d="M332.4 12.1c-13.1 1.5-27.9 7.1-39.4 14.9-3 2.1-47.5 45.5-98.8 96.5C97.8 219.4 95.6 221.8 89 236.3c-6.6 14.6-9.3 33.3-7.1 48.6l1.2 8.3-31.4 31.1c-33.6 33.4-38.4 39.2-44.8 54.6-9.5 22.9-8.8 49.1 2 71.6 5.2 10.9 8.3 14.5 12.6 14.5 6.2 0 9.6-6.6 6-11.6-3.2-4.7-8.4-16.3-10-22.3-8.8-34 7.2-68.4 39.2-84.5 14.5-7.2 35-9.2 50.7-4.7 17.2 4.8 32.6 15.8 42.1 30.1 25.1 37.8 10.5 88.2-30.9 107-9.6 4.4-18.6 6.2-30.1 6.2-15 0-25.4-3.1-41.7-12.3-4.5-2.5-8.5-1.7-10.8 2.4-2.2 4-.4 7.6 6 11.9 12.3 8.3 29.2 13 46.5 13 12.5.1 21.4-1.6 33-6.1 12.1-4.7 19.6-10.1 35.7-26 8.2-7.9 14.9-14.3 15.1-14 9.7 15.2 18.6 24.6 30.4 32.3 14.5 9.3 29.9 13.8 47.8 13.8 17.4.1 34-4.6 47.5-13.4 7.6-4.9 189-184.1 196.7-194.2 25.6-33.9 22.2-82-8.2-114.4-15.8-16.9-36.7-26.1-60.2-26.5-6.2-.1-11.2-.4-11-.7.1-.3 2.1-3.7 4.4-7.5 9.1-15.1 13.6-36.5 11.4-53.8-1.9-14.7-9.2-33.8-15.3-39.9-4-4-11.8-.7-11.8 5 0 1.5 2 6.7 4.5 11.6 12.2 24.4 10.5 51.8-4.8 74.6-3.4 5.1-57.1 59.4-110.7 111.9l-35.5 34.9-.1-15.2c0-13.4-.4-16.1-2.7-23.9-7.1-23.3-21.7-41.6-42.7-53.5-13.7-7.7-35.9-12.2-51-10.3-4.1.5-7.6.9-7.7.7C152.7 185 292 48 297.5 43.9c13.6-10.4 24.1-15.2 37.3-16.8 15-1.9 32.6 1.8 45.5 9.4 7.1 4.3 10.8 4.5 13.6.9 4.6-5.9 1.9-9.9-10.5-16.2-10.1-5.1-19.5-7.9-30.9-9.2-9.9-1.1-10-1.1-20.1.1zm108.7 156.4c15.1 3.9 32 15.7 41.4 29 9.8 13.6 14.5 28.1 14.5 44.1 0 15.9-4.5 28.9-14.3 41.9-2.5 3.3-36 37.1-74.4 75.1l-69.8 69.1-.1-15.1c0-13.4-.4-16.1-2.7-23.9-11.7-38.1-44.5-63.5-82.9-64-5.4-.1-9.8-.4-9.8-.7 0-.3 34.4-34.6 76.5-76.3 73.3-72.7 76.6-75.9 82.2-77.8 12-4.1 26.7-4.7 39.4-1.4zm-254.4 33.1c17.3 3.8 34.8 16.2 44.7 31.6 19.1 30 14 68.6-12.4 93.1-22 20.3-55.5 25.1-82.2 11.6-44.8-22.6-54.6-81.3-19.4-116.4 18.6-18.5 43.4-25.7 69.3-19.9zM91.4 313.7c1.4 2.7 3.4 6.1 4.5 7.8l2 3-10.2.1c-5.6 0-11.5.4-13.2.8-2.6.6-1.9-.3 5.5-7.8 4.6-4.7 8.6-8.6 8.7-8.6.2 0 1.4 2.1 2.7 4.7zm178.7 28.4c16.5 4.6 32 15.8 41.4 29.9 28.3 42.5 5.5 99.8-44.3 111.6-8.7 2.1-24.7 2.1-33.4 0-48.9-11.6-72.2-68.1-45.4-110 17.5-27.4 50.6-40.1 81.7-31.5zm-93.2 21.4c-1.1 1.6-3.1 5.1-4.5 7.7-1.3 2.7-2.6 4.8-2.9 4.8-.3 0-1.6-2.1-2.9-4.8-1.4-2.6-3.4-6.1-4.5-7.7l-2-3h18.8l-2 3z"/><path d="M162 211c-14.9 2-25.4 7.3-36.6 18.5-6.3 6.2-9 9.8-11.8 15.7-11.7 24.4-7.2 51.8 11.7 70.8 7.2 7.3 14.9 12 25.2 15.6 6.8 2.3 9.6 2.7 19 2.7s12.2-.4 19.4-2.8c36.2-12.2 53.2-52.4 36.5-86.5-5-10.1-17-22.3-27-27.3-11.5-5.8-24.9-8.3-36.4-6.7zm24 17.5c14.1 5 25.5 17.8 29.5 33.2 6.8 26-11.8 53.1-39.3 57.3-32.2 5-60.8-26.1-52.7-57.3 4-15.4 15.3-28.1 29.5-33.2 9.6-3.4 23.4-3.4 33 0zM240.9 351c-34.5 5.4-58.7 40.1-51.5 73.8 2.6 12.3 7.7 21.5 17 30.7 13.1 13 26.6 18.8 44.1 18.8 45.9.1 76.3-48 56.1-88.8-8-16-21.9-27.6-39.3-32.8-6.7-2-19.3-2.8-26.4-1.7zm17 15c26.9 4.4 45.3 31.6 38.6 57.3-5.6 21.7-23.8 35.9-46 35.9s-40.4-14.2-46-35.9c-7.3-28 14.8-56.5 45-58.2 1.1 0 4.9.4 8.4.9zM78.9 351c-34.5 5.4-58.7 40.1-51.5 73.8 2.6 12.3 7.7 21.5 17 30.7 13.1 13.1 26.6 18.8 44.1 18.8 45.9 0 76.3-48 56.1-88.8-8-16-21.9-27.6-39.3-32.8-6.7-2-19.3-2.8-26.4-1.7zm17 15c26.9 4.4 45.3 31.6 38.6 57.3-5.6 21.7-23.8 35.9-46 35.9s-40.4-14.2-46-35.9c-7.3-28 14.8-56.5 45-58.2 1.1 0 4.9.4 8.4.9z"/></svg>
