<svg xmlns="http://www.w3.org/2000/svg" width="1em" height="1em" version="1.0" viewBox="0 0 24 24"><path d="m360.5 60-52 52h-15.8l-9.1 8.8c-5 4.9-45.5 43.6-90.1 86.1-44.5 42.6-82.9 79.3-85.2 81.7l-4.3 4.3v23.6l-48 48-48 48v86.6l2.5 2.4 2.4 2.5h86.4l14.4-14.2 14.3-14.2v11.7c0 11.2.1 11.9 2.5 14.2l2.4 2.5h86.6l142.2-142.3L504 219.5v-78.6l-2.5-2.4c-2.4-2.4-2.8-2.5-18.2-2.5h-15.7l18.2-18.3L504 99.4V12.9l-2.5-2.4-2.4-2.5h-86.6l-52 52zm66 14-50 50-.6-4.1c-1-7.5-2.2-7.9-24.8-7.9h-19.6l44-44 44-44h57l-50 50zm39.8 40.2L444.5 136h-23.6l-15.1 14.2c-8.3 7.9-18.4 17.4-22.5 21.1l-7.3 6.9V147.5l55.8-55.8L487.5 36l.3 28.2.2 28.3-21.7 21.7zM268.5 208l-80 80H132l83.6-80 83.6-80h49.3l-80 80zm91.5-35.7v32.3l-79.7 76.1-79.8 76.1-.3-28.6-.2-28.7 79.7-79.7c43.9-43.9 79.9-79.8 80-79.8.2 0 .3 14.5.3 32.3zm113.5-17.4c-1.7 1.6-61 59.2-131.9 128L212.8 408h-28.2l-28.1-.1L169 396l12.5-12h13.7l8.2-7.8c4.4-4.3 43.2-41.3 86.1-82.1 42.9-40.9 79.9-76.3 82.3-78.7 3.9-4 4.2-4.7 4.2-9.7v-5.4l25.6-24.1 25.7-24.2h49.2l-3 2.9zM356 344.5l-132 132 .2-28.8.3-28.8L356 291.2l131.5-127.8.3 24.5.2 24.6-132 132zM184 336v32h-64v-64h64v32zm-77.1 46.1c1.3 1.1 3.9 1.9 5.9 1.9h3.7l-12 12-12 12h-57l34-34 34-34 .5 20.1c.5 19.6.6 20.1 2.9 22zm40 12.6c-6.3 5.9-13.1 12.4-15.1 14.4l-3.8 3.7v39.7l-12 12-12 12v-57l17.7-17.7 17.8-17.8h18.8l-11.4 10.7zM88 456v32H24v-64h64v32zm120 0v32h-64v-64h64v32z"/></svg>
