<svg width="92" height="295" viewBox="0 0 92 295" fill="none" xmlns="http://www.w3.org/2000/svg">
<path d="M91.7071 287.707C92.0976 287.317 92.0976 286.683 91.7071 286.293L85.3431 279.929C84.9526 279.538 84.3194 279.538 83.9289 279.929C83.5384 280.319 83.5384 280.953 83.9289 281.343L89.5858 287L83.9289 292.657C83.5384 293.047 83.5384 293.681 83.9289 294.071C84.3194 294.462 84.9526 294.462 85.3431 294.071L91.7071 287.707ZM2.28882e-05 -3.951e-06L1.16544e-05 257L2.00001 257L2.00002 -3.91704e-06L2.28882e-05 -3.951e-06ZM31 288L91 288L91 286L31 286L31 288ZM1.16544e-05 257C1.0906e-05 274.121 13.8792 288 31 288L31 286C14.9838 286 2.00001 273.016 2.00001 257L1.16544e-05 257Z" fill="#F16768"/>
</svg>
