<svg width="96" height="148" viewBox="0 0 96 148" fill="none" xmlns="http://www.w3.org/2000/svg">
<path d="M5.49986 0.666663C2.55434 0.666662 0.166527 3.05448 0.166527 6C0.166527 8.94551 2.55434 11.3333 5.49986 11.3333C8.44538 11.3333 10.8332 8.94552 10.8332 6C10.8332 3.05448 8.44538 0.666663 5.49986 0.666663ZM95.7071 140.707C96.0976 140.317 96.0976 139.683 95.7071 139.293L89.3431 132.929C88.9526 132.538 88.3195 132.538 87.9289 132.929C87.5384 133.319 87.5384 133.953 87.9289 134.343L93.5858 140L87.9289 145.657C87.5384 146.047 87.5384 146.681 87.9289 147.071C88.3195 147.462 88.9526 147.462 89.3431 147.071L95.7071 140.707ZM4.49986 6L4.49987 110L6.49987 110L6.49986 6L4.49986 6ZM35.4999 141L95 141L95 139L35.4999 139L35.4999 141ZM4.49987 110C4.49987 127.121 18.379 141 35.4999 141L35.4999 139C19.4836 139 6.49987 126.016 6.49987 110L4.49987 110Z" fill="#FBA91E"/>
</svg>
